<svg width="211" height="101" viewBox="0 0 211 101" fill="none" xmlns="http://www.w3.org/2000/svg">
<rect width="211" height="101" rx="3" fill="#D9D9D9"/>
<path d="M91.4167 69.75C90.2708 69.75 89.2896 69.3424 88.4729 68.5271C87.6576 67.7104 87.25 66.7292 87.25 65.5833V36.4167C87.25 35.2708 87.6576 34.2896 88.4729 33.4729C89.2896 32.6576 90.2708 32.25 91.4167 32.25H120.583C121.729 32.25 122.71 32.6576 123.527 33.4729C124.342 34.2896 124.75 35.2708 124.75 36.4167V65.5833C124.75 66.7292 124.342 67.7104 123.527 68.5271C122.71 69.3424 121.729 69.75 120.583 69.75H91.4167ZM93.5 61.4167H118.5L110.688 51L104.438 59.3333L99.75 53.0833L93.5 61.4167Z" fill="#666666"/>
</svg>
